<svg preserveAspectRatio="none" width="100%" height="100%" overflow="visible" style="display: block;" viewBox="0 0 40 40" fill="none" xmlns="http://www.w3.org/2000/svg">
<g id="archive">
<path id="Vector" d="M6.6656 13.3333V31.6667C6.6656 32.5507 7.01682 33.3986 7.64199 34.0237C8.26716 34.6488 9.11507 35 9.9992 35H30.0008C30.8849 35 31.7328 34.6488 32.358 34.0237C32.9832 33.3986 33.3344 32.5507 33.3344 31.6667V13.3333M16.6664 20H23.3336M4.9988 5H35.0012C35.9217 5 36.668 5.74619 36.668 6.66667V11.6667C36.668 12.5871 35.9217 13.3333 35.0012 13.3333H4.9988C4.07825 13.3333 3.332 12.5871 3.332 11.6667V6.66667C3.332 5.74619 4.07825 5 4.9988 5Z" stroke="var(--stroke-0, #BC6C4D)" stroke-width="2" stroke-linecap="round"/>
</g>
</svg>
