<svg preserveAspectRatio="none" width="100%" height="100%" overflow="visible" style="display: block;" viewBox="0 0 32 32" fill="none" xmlns="http://www.w3.org/2000/svg">
<g id="atom">
<path id="Vector" d="M17.3339 15.9999C17.3339 16.7363 16.7369 17.3332 16.0005 17.3332C15.2642 17.3332 14.6672 16.7363 14.6672 15.9999C14.6672 15.2635 15.2642 14.6666 16.0005 14.6666C16.7369 14.6666 17.3339 15.2635 17.3339 15.9999ZM26.9337 26.9337C29.6537 24.2271 26.9604 17.1204 20.9337 11.0671C14.8804 5.04039 7.77372 2.34706 5.06706 5.06706C2.34706 7.77372 5.04039 14.8804 11.0671 20.9337C17.1204 26.9604 24.2271 29.6537 26.9337 26.9337ZM20.9337 20.9337C26.9604 14.8804 29.6537 7.77372 26.9337 5.06706C24.2271 2.34706 17.1204 5.04039 11.0671 11.0671C5.04039 17.1204 2.34706 24.2271 5.06706 26.9337C7.77372 29.6537 14.8804 26.9604 20.9337 20.9337Z" stroke="var(--stroke-0, #E5E2DD)" stroke-width="2" stroke-linecap="round"/>
</g>
</svg>
