<svg preserveAspectRatio="none" width="100%" height="100%" overflow="visible" style="display: block;" viewBox="0 0 40 40" fill="none" xmlns="http://www.w3.org/2000/svg">
<g id="church">
<path id="Vector" d="M16.6664 15.0004H23.3336M20 11.6672V20.0001M23.3336 34.9992V29.9995C23.3336 29.1155 22.9824 28.2677 22.3572 27.6426C21.732 27.0176 20.8841 26.6664 20 26.6664C19.1159 26.6664 18.268 27.0176 17.6428 27.6426C17.0176 28.2677 16.6664 29.1155 16.6664 29.9995V34.9992M30.0008 15.0004L35.8679 18.5785C36.1122 18.7272 36.3141 18.9362 36.4542 19.1855C36.5943 19.4347 36.668 19.7158 36.668 20.0018V31.6661C36.668 32.5501 36.3168 33.3979 35.6916 34.023C35.0664 34.6481 34.2185 34.9992 33.3344 34.9992H6.6656C5.78147 34.9992 4.93356 34.6481 4.30839 34.023C3.68322 33.3979 3.332 32.5501 3.332 31.6661V20.0018C3.33205 19.7158 3.40567 19.4347 3.54579 19.1855C3.6859 18.9362 3.8878 18.7272 4.13206 18.5785L9.9992 15.0004M9.9992 35V11.668C9.99906 11.4176 10.0553 11.1705 10.1638 10.9449C10.2723 10.7192 10.4303 10.5209 10.6259 10.3647L18.9599 3.70011C19.2556 3.4641 19.6228 3.3357 20.0011 3.336C20.3795 3.3363 20.7464 3.46529 21.0417 3.70177L29.3757 10.3681C29.5707 10.5241 29.728 10.7219 29.8362 10.9469C29.9444 11.1719 30.0006 11.4183 30.0008 11.668V35" stroke="var(--stroke-0, #BC6C4D)" stroke-width="2" stroke-linecap="round"/>
</g>
</svg>
