<svg preserveAspectRatio="none" width="100%" height="100%" overflow="visible" style="display: block;" viewBox="0 0 32 32" fill="none" xmlns="http://www.w3.org/2000/svg">
<g id="plane-takeoff">
<path id="Vector" d="M2.6656 29.3334H29.3323M8.47893 23.2003L5.33227 22.6669L2.6656 17.3336L4.13227 16.6003C4.50448 16.4127 4.91547 16.315 5.33227 16.315C5.74906 16.315 6.16006 16.4127 6.53227 16.6003L6.75893 16.7336C7.13114 16.9212 7.54214 17.0189 7.95893 17.0189C8.37573 17.0189 8.78672 16.9212 9.15893 16.7336L10.6656 16.0003L6.6656 8.00026L7.8656 7.40026C8.30917 7.18206 8.80465 7.09144 9.29674 7.13853C9.78882 7.18562 10.2581 7.36856 10.6523 7.66693L16.0123 11.6669C16.4078 11.9679 16.8795 12.1523 17.3743 12.1994C17.869 12.2466 18.3671 12.1545 18.8123 11.9336L24.3989 9.18693C25.1129 8.82705 25.9353 8.74623 26.7056 8.96026L27.9989 9.3336C28.2662 9.40781 28.5135 9.54063 28.7229 9.7224C28.9324 9.90418 29.0987 10.1303 29.2098 10.3845C29.3209 10.6386 29.374 10.9142 29.3652 11.1914C29.3564 11.4686 29.2859 11.7404 29.1589 11.9869L28.6523 13.0003C28.3456 13.6136 27.8523 14.1203 27.2256 14.4403L10.1056 22.9336C9.60219 23.1829 9.0329 23.2669 8.47893 23.1736V23.2003Z" stroke="var(--stroke-0, #E5E2DD)" stroke-width="2" stroke-linecap="round"/>
</g>
</svg>
