<svg preserveAspectRatio="none" width="100%" height="100%" overflow="visible" style="display: block;" viewBox="0 0 40 32" fill="none" xmlns="http://www.w3.org/2000/svg">
<g id="quote" opacity="0.3">
<g id="Vector">
<path d="M24.3096 4.78105C24.9348 4.28095 25.7826 4 26.6667 4H31.6667C32.5507 4 33.3986 4.28095 34.0237 4.78105C34.6488 5.28115 35 5.95942 35 6.66667V20C35 22.1217 33.9464 24.1566 32.0711 25.6569C30.1957 27.1571 27.6522 28 25 28C24.558 28 24.134 27.8595 23.8215 27.6095C23.5089 27.3594 23.3333 27.0203 23.3333 26.6667V24C23.3333 23.6464 23.5089 23.3072 23.8215 23.0572C24.134 22.8071 24.558 22.6667 25 22.6667C25.8841 22.6667 26.7319 22.3857 27.357 21.8856C27.9821 21.3855 28.3333 20.7072 28.3333 20V18.6667C28.3333 18.313 28.1577 17.9739 27.8452 17.7239C27.5326 17.4738 27.1087 17.3333 26.6667 17.3333C25.7826 17.3333 24.9348 17.0524 24.3096 16.5523C23.6845 16.0522 23.3333 15.3739 23.3333 14.6667V6.66667C23.3333 5.95942 23.6845 5.28115 24.3096 4.78105Z" stroke="var(--stroke-0, #BC6C4D)" stroke-width="2" stroke-linecap="round"/>
<path d="M5.97631 4.78105C6.60143 4.28095 7.44928 4 8.33333 4H13.3333C14.2174 4 15.0652 4.28095 15.6904 4.78105C16.3155 5.28115 16.6667 5.95942 16.6667 6.66667V20C16.6667 22.1217 15.6131 24.1566 13.7377 25.6569C11.8624 27.1571 9.31883 28 6.66667 28C6.22464 28 5.80072 27.8595 5.48816 27.6095C5.17559 27.3594 5 27.0203 5 26.6667V24C5 23.6464 5.17559 23.3072 5.48816 23.0572C5.80072 22.8071 6.22464 22.6667 6.66667 22.6667C7.55072 22.6667 8.39857 22.3857 9.02369 21.8856C9.64881 21.3855 10 20.7072 10 20V18.6667C10 18.313 9.8244 17.9739 9.51184 17.7239C9.19928 17.4738 8.77536 17.3333 8.33333 17.3333C7.44928 17.3333 6.60143 17.0524 5.97631 16.5523C5.35119 16.0522 5 15.3739 5 14.6667V6.66667C5 5.95942 5.35119 5.28115 5.97631 4.78105Z" stroke="var(--stroke-0, #BC6C4D)" stroke-width="2" stroke-linecap="round"/>
</g>
</g>
</svg>
